<?xml version="1.0" encoding="utf-8" standalone="no"?>
<!DOCTYPE svg PUBLIC "-//W3C//DTD SVG 1.1//EN"
  "http://www.w3.org/Graphics/SVG/1.1/DTD/svg11.dtd">
<svg xmlns:xlink="http://www.w3.org/1999/xlink" width="864pt" height="432pt" viewBox="0 0 864 432" xmlns="http://www.w3.org/2000/svg" version="1.1">
 <metadata>
  <rdf:RDF xmlns:dc="http://purl.org/dc/elements/1.1/" xmlns:cc="http://creativecommons.org/ns#" xmlns:rdf="http://www.w3.org/1999/02/22-rdf-syntax-ns#">
   <cc:Work>
    <dc:type rdf:resource="http://purl.org/dc/dcmitype/StillImage"/>
    <dc:date>2026-02-01T18:29:19.882350</dc:date>
    <dc:format>image/svg+xml</dc:format>
    <dc:creator>
     <cc:Agent>
      <dc:title>Matplotlib v3.10.1, https://matplotlib.org/</dc:title>
     </cc:Agent>
    </dc:creator>
   </cc:Work>
  </rdf:RDF>
 </metadata>
 <defs>
  <style type="text/css">*{stroke-linejoin: round; stroke-linecap: butt}</style>
 </defs>
 <g id="figure_1">
  <g id="patch_1">
   <path d="M 0 432 
L 864 432 
L 864 0 
L 0 0 
z
" style="fill: #ffffff"/>
  </g>
  <g id="axes_1">
   <g id="patch_2">
    <path d="M 46.64 390.04 
L 757.76 390.04 
L 757.76 26.88 
L 46.64 26.88 
z
" style="fill: #ffffff"/>
   </g>
   <g id="patch_3">
    <path d="M 78.963636 172.144 
L 263.67013 172.144 
L 263.67013 63.196 
L 78.963636 63.196 
z
" clip-path="url(#p8e02df293d)" style="fill: #440154; opacity: 0.15; stroke: #440154; stroke-linejoin: miter"/>
   </g>
   <g id="patch_4">
    <path d="M 171.316883 172.144 
L 356.023377 172.144 
L 356.023377 63.196 
L 171.316883 63.196 
z
" clip-path="url(#p8e02df293d)" style="fill: #414487; opacity: 0.15; stroke: #414487; stroke-linejoin: miter"/>
   </g>
   <g id="patch_5">
    <path d="M 263.67013 172.144 
L 448.376623 172.144 
L 448.376623 63.196 
L 263.67013 63.196 
z
" clip-path="url(#p8e02df293d)" style="fill: #2a788e; opacity: 0.15; stroke: #2a788e; stroke-linejoin: miter"/>
   </g>
   <g id="patch_6">
    <path d="M 356.023377 172.144 
L 540.72987 172.144 
L 540.72987 63.196 
L 356.023377 63.196 
z
" clip-path="url(#p8e02df293d)" style="fill: #22a884; opacity: 0.15; stroke: #22a884; stroke-linejoin: miter"/>
   </g>
   <g id="patch_7">
    <path d="M 448.376623 172.144 
L 633.083117 172.144 
L 633.083117 63.196 
L 448.376623 63.196 
z
" clip-path="url(#p8e02df293d)" style="fill: #7ad151; opacity: 0.15; stroke: #7ad151; stroke-linejoin: miter"/>
   </g>
   <g id="patch_8">
    <path d="M 540.72987 172.144 
L 725.436364 172.144 
L 725.436364 63.196 
L 540.72987 63.196 
z
" clip-path="url(#p8e02df293d)" style="fill: #fde725; opacity: 0.15; stroke: #fde725; stroke-linejoin: miter"/>
   </g>
   <g id="matplotlib.axis_1">
    <g id="xtick_1">
     <g id="line2d_1">
      <path d="M 78.963636 390.04 
L 78.963636 26.88 
" clip-path="url(#p8e02df293d)" style="fill: none; stroke: #b0b0b0; stroke-opacity: 0.3; stroke-width: 0.8; stroke-linecap: square"/>
     </g>
     <g id="line2d_2">
      <defs>
       <path id="m822f5ace9f" d="M 0 0 
L 0 3.5 
" style="stroke: #000000; stroke-width: 0.8"/>
      </defs>
      <g>
       <use xlink:href="#m822f5ace9f" x="78.963636" y="390.04" style="stroke: #000000; stroke-width: 0.8"/>
      </g>
     </g>
     <g id="text_1">
      <!-- 0 -->
      <g transform="translate(75.782386 404.638438) scale(0.1 -0.1)">
       <defs>
        <path id="DejaVuSans-30" d="M 2034 4250 
Q 1547 4250 1301 3770 
Q 1056 3291 1056 2328 
Q 1056 1369 1301 889 
Q 1547 409 2034 409 
Q 2525 409 2770 889 
Q 3016 1369 3016 2328 
Q 3016 3291 2770 3770 
Q 2525 4250 2034 4250 
z
M 2034 4750 
Q 2819 4750 3233 4129 
Q 3647 3509 3647 2328 
Q 3647 1150 3233 529 
Q 2819 -91 2034 -91 
Q 1250 -91 836 529 
Q 422 1150 422 2328 
Q 422 3509 836 4129 
Q 1250 4750 2034 4750 
z
" transform="scale(0.015625)"/>
       </defs>
       <use xlink:href="#DejaVuSans-30"/>
      </g>
     </g>
    </g>
    <g id="xtick_2">
     <g id="line2d_3">
      <path d="M 223.265584 390.04 
L 223.265584 26.88 
" clip-path="url(#p8e02df293d)" style="fill: none; stroke: #b0b0b0; stroke-opacity: 0.3; stroke-width: 0.8; stroke-linecap: square"/>
     </g>
     <g id="line2d_4">
      <g>
       <use xlink:href="#m822f5ace9f" x="223.265584" y="390.04" style="stroke: #000000; stroke-width: 0.8"/>
      </g>
     </g>
     <g id="text_2">
      <!-- 200 -->
      <g transform="translate(213.721834 404.638438) scale(0.1 -0.1)">
       <defs>
        <path id="DejaVuSans-32" d="M 1228 531 
L 3431 531 
L 3431 0 
L 469 0 
L 469 531 
Q 828 903 1448 1529 
Q 2069 2156 2228 2338 
Q 2531 2678 2651 2914 
Q 2772 3150 2772 3378 
Q 2772 3750 2511 3984 
Q 2250 4219 1831 4219 
Q 1534 4219 1204 4116 
Q 875 4013 500 3803 
L 500 4441 
Q 881 4594 1212 4672 
Q 1544 4750 1819 4750 
Q 2544 4750 2975 4387 
Q 3406 4025 3406 3419 
Q 3406 3131 3298 2873 
Q 3191 2616 2906 2266 
Q 2828 2175 2409 1742 
Q 1991 1309 1228 531 
z
" transform="scale(0.015625)"/>
       </defs>
       <use xlink:href="#DejaVuSans-32"/>
       <use xlink:href="#DejaVuSans-30" transform="translate(63.623047 0)"/>
       <use xlink:href="#DejaVuSans-30" transform="translate(127.246094 0)"/>
      </g>
     </g>
    </g>
    <g id="xtick_3">
     <g id="line2d_5">
      <path d="M 367.567532 390.04 
L 367.567532 26.88 
" clip-path="url(#p8e02df293d)" style="fill: none; stroke: #b0b0b0; stroke-opacity: 0.3; stroke-width: 0.8; stroke-linecap: square"/>
     </g>
     <g id="line2d_6">
      <g>
       <use xlink:href="#m822f5ace9f" x="367.567532" y="390.04" style="stroke: #000000; stroke-width: 0.8"/>
      </g>
     </g>
     <g id="text_3">
      <!-- 400 -->
      <g transform="translate(358.023782 404.638438) scale(0.1 -0.1)">
       <defs>
        <path id="DejaVuSans-34" d="M 2419 4116 
L 825 1625 
L 2419 1625 
L 2419 4116 
z
M 2253 4666 
L 3047 4666 
L 3047 1625 
L 3713 1625 
L 3713 1100 
L 3047 1100 
L 3047 0 
L 2419 0 
L 2419 1100 
L 313 1100 
L 313 1709 
L 2253 4666 
z
" transform="scale(0.015625)"/>
       </defs>
       <use xlink:href="#DejaVuSans-34"/>
       <use xlink:href="#DejaVuSans-30" transform="translate(63.623047 0)"/>
       <use xlink:href="#DejaVuSans-30" transform="translate(127.246094 0)"/>
      </g>
     </g>
    </g>
    <g id="xtick_4">
     <g id="line2d_7">
      <path d="M 511.869481 390.04 
L 511.869481 26.88 
" clip-path="url(#p8e02df293d)" style="fill: none; stroke: #b0b0b0; stroke-opacity: 0.3; stroke-width: 0.8; stroke-linecap: square"/>
     </g>
     <g id="line2d_8">
      <g>
       <use xlink:href="#m822f5ace9f" x="511.869481" y="390.04" style="stroke: #000000; stroke-width: 0.8"/>
      </g>
     </g>
     <g id="text_4">
      <!-- 600 -->
      <g transform="translate(502.325731 404.638438) scale(0.1 -0.1)">
       <defs>
        <path id="DejaVuSans-36" d="M 2113 2584 
Q 1688 2584 1439 2293 
Q 1191 2003 1191 1497 
Q 1191 994 1439 701 
Q 1688 409 2113 409 
Q 2538 409 2786 701 
Q 3034 994 3034 1497 
Q 3034 2003 2786 2293 
Q 2538 2584 2113 2584 
z
M 3366 4563 
L 3366 3988 
Q 3128 4100 2886 4159 
Q 2644 4219 2406 4219 
Q 1781 4219 1451 3797 
Q 1122 3375 1075 2522 
Q 1259 2794 1537 2939 
Q 1816 3084 2150 3084 
Q 2853 3084 3261 2657 
Q 3669 2231 3669 1497 
Q 3669 778 3244 343 
Q 2819 -91 2113 -91 
Q 1303 -91 875 529 
Q 447 1150 447 2328 
Q 447 3434 972 4092 
Q 1497 4750 2381 4750 
Q 2619 4750 2861 4703 
Q 3103 4656 3366 4563 
z
" transform="scale(0.015625)"/>
       </defs>
       <use xlink:href="#DejaVuSans-36"/>
       <use xlink:href="#DejaVuSans-30" transform="translate(63.623047 0)"/>
       <use xlink:href="#DejaVuSans-30" transform="translate(127.246094 0)"/>
      </g>
     </g>
    </g>
    <g id="xtick_5">
     <g id="line2d_9">
      <path d="M 656.171429 390.04 
L 656.171429 26.88 
" clip-path="url(#p8e02df293d)" style="fill: none; stroke: #b0b0b0; stroke-opacity: 0.3; stroke-width: 0.8; stroke-linecap: square"/>
     </g>
     <g id="line2d_10">
      <g>
       <use xlink:href="#m822f5ace9f" x="656.171429" y="390.04" style="stroke: #000000; stroke-width: 0.8"/>
      </g>
     </g>
     <g id="text_5">
      <!-- 800 -->
      <g transform="translate(646.627679 404.638438) scale(0.1 -0.1)">
       <defs>
        <path id="DejaVuSans-38" d="M 2034 2216 
Q 1584 2216 1326 1975 
Q 1069 1734 1069 1313 
Q 1069 891 1326 650 
Q 1584 409 2034 409 
Q 2484 409 2743 651 
Q 3003 894 3003 1313 
Q 3003 1734 2745 1975 
Q 2488 2216 2034 2216 
z
M 1403 2484 
Q 997 2584 770 2862 
Q 544 3141 544 3541 
Q 544 4100 942 4425 
Q 1341 4750 2034 4750 
Q 2731 4750 3128 4425 
Q 3525 4100 3525 3541 
Q 3525 3141 3298 2862 
Q 3072 2584 2669 2484 
Q 3125 2378 3379 2068 
Q 3634 1759 3634 1313 
Q 3634 634 3220 271 
Q 2806 -91 2034 -91 
Q 1263 -91 848 271 
Q 434 634 434 1313 
Q 434 1759 690 2068 
Q 947 2378 1403 2484 
z
M 1172 3481 
Q 1172 3119 1398 2916 
Q 1625 2713 2034 2713 
Q 2441 2713 2670 2916 
Q 2900 3119 2900 3481 
Q 2900 3844 2670 4047 
Q 2441 4250 2034 4250 
Q 1625 4250 1398 4047 
Q 1172 3844 1172 3481 
z
" transform="scale(0.015625)"/>
       </defs>
       <use xlink:href="#DejaVuSans-38"/>
       <use xlink:href="#DejaVuSans-30" transform="translate(63.623047 0)"/>
       <use xlink:href="#DejaVuSans-30" transform="translate(127.246094 0)"/>
      </g>
     </g>
    </g>
    <g id="text_6">
     <!-- Samples -->
     <g transform="translate(380.846875 418.316562) scale(0.1 -0.1)">
      <defs>
       <path id="DejaVuSans-53" d="M 3425 4513 
L 3425 3897 
Q 3066 4069 2747 4153 
Q 2428 4238 2131 4238 
Q 1616 4238 1336 4038 
Q 1056 3838 1056 3469 
Q 1056 3159 1242 3001 
Q 1428 2844 1947 2747 
L 2328 2669 
Q 3034 2534 3370 2195 
Q 3706 1856 3706 1288 
Q 3706 609 3251 259 
Q 2797 -91 1919 -91 
Q 1588 -91 1214 -16 
Q 841 59 441 206 
L 441 856 
Q 825 641 1194 531 
Q 1563 422 1919 422 
Q 2459 422 2753 634 
Q 3047 847 3047 1241 
Q 3047 1584 2836 1778 
Q 2625 1972 2144 2069 
L 1759 2144 
Q 1053 2284 737 2584 
Q 422 2884 422 3419 
Q 422 4038 858 4394 
Q 1294 4750 2059 4750 
Q 2388 4750 2728 4690 
Q 3069 4631 3425 4513 
z
" transform="scale(0.015625)"/>
       <path id="DejaVuSans-61" d="M 2194 1759 
Q 1497 1759 1228 1600 
Q 959 1441 959 1056 
Q 959 750 1161 570 
Q 1363 391 1709 391 
Q 2188 391 2477 730 
Q 2766 1069 2766 1631 
L 2766 1759 
L 2194 1759 
z
M 3341 1997 
L 3341 0 
L 2766 0 
L 2766 531 
Q 2569 213 2275 61 
Q 1981 -91 1556 -91 
Q 1019 -91 701 211 
Q 384 513 384 1019 
Q 384 1609 779 1909 
Q 1175 2209 1959 2209 
L 2766 2209 
L 2766 2266 
Q 2766 2663 2505 2880 
Q 2244 3097 1772 3097 
Q 1472 3097 1187 3025 
Q 903 2953 641 2809 
L 641 3341 
Q 956 3463 1253 3523 
Q 1550 3584 1831 3584 
Q 2591 3584 2966 3190 
Q 3341 2797 3341 1997 
z
" transform="scale(0.015625)"/>
       <path id="DejaVuSans-6d" d="M 3328 2828 
Q 3544 3216 3844 3400 
Q 4144 3584 4550 3584 
Q 5097 3584 5394 3201 
Q 5691 2819 5691 2113 
L 5691 0 
L 5113 0 
L 5113 2094 
Q 5113 2597 4934 2840 
Q 4756 3084 4391 3084 
Q 3944 3084 3684 2787 
Q 3425 2491 3425 1978 
L 3425 0 
L 2847 0 
L 2847 2094 
Q 2847 2600 2669 2842 
Q 2491 3084 2119 3084 
Q 1678 3084 1418 2786 
Q 1159 2488 1159 1978 
L 1159 0 
L 581 0 
L 581 3500 
L 1159 3500 
L 1159 2956 
Q 1356 3278 1631 3431 
Q 1906 3584 2284 3584 
Q 2666 3584 2933 3390 
Q 3200 3197 3328 2828 
z
" transform="scale(0.015625)"/>
       <path id="DejaVuSans-70" d="M 1159 525 
L 1159 -1331 
L 581 -1331 
L 581 3500 
L 1159 3500 
L 1159 2969 
Q 1341 3281 1617 3432 
Q 1894 3584 2278 3584 
Q 2916 3584 3314 3078 
Q 3713 2572 3713 1747 
Q 3713 922 3314 415 
Q 2916 -91 2278 -91 
Q 1894 -91 1617 61 
Q 1341 213 1159 525 
z
M 3116 1747 
Q 3116 2381 2855 2742 
Q 2594 3103 2138 3103 
Q 1681 3103 1420 2742 
Q 1159 2381 1159 1747 
Q 1159 1113 1420 752 
Q 1681 391 2138 391 
Q 2594 391 2855 752 
Q 3116 1113 3116 1747 
z
" transform="scale(0.015625)"/>
       <path id="DejaVuSans-6c" d="M 603 4863 
L 1178 4863 
L 1178 0 
L 603 0 
L 603 4863 
z
" transform="scale(0.015625)"/>
       <path id="DejaVuSans-65" d="M 3597 1894 
L 3597 1613 
L 953 1613 
Q 991 1019 1311 708 
Q 1631 397 2203 397 
Q 2534 397 2845 478 
Q 3156 559 3463 722 
L 3463 178 
Q 3153 47 2828 -22 
Q 2503 -91 2169 -91 
Q 1331 -91 842 396 
Q 353 884 353 1716 
Q 353 2575 817 3079 
Q 1281 3584 2069 3584 
Q 2775 3584 3186 3129 
Q 3597 2675 3597 1894 
z
M 3022 2063 
Q 3016 2534 2758 2815 
Q 2500 3097 2075 3097 
Q 1594 3097 1305 2825 
Q 1016 2553 972 2059 
L 3022 2063 
z
" transform="scale(0.015625)"/>
       <path id="DejaVuSans-73" d="M 2834 3397 
L 2834 2853 
Q 2591 2978 2328 3040 
Q 2066 3103 1784 3103 
Q 1356 3103 1142 2972 
Q 928 2841 928 2578 
Q 928 2378 1081 2264 
Q 1234 2150 1697 2047 
L 1894 2003 
Q 2506 1872 2764 1633 
Q 3022 1394 3022 966 
Q 3022 478 2636 193 
Q 2250 -91 1575 -91 
Q 1294 -91 989 -36 
Q 684 19 347 128 
L 347 722 
Q 666 556 975 473 
Q 1284 391 1588 391 
Q 1994 391 2212 530 
Q 2431 669 2431 922 
Q 2431 1156 2273 1281 
Q 2116 1406 1581 1522 
L 1381 1569 
Q 847 1681 609 1914 
Q 372 2147 372 2553 
Q 372 3047 722 3315 
Q 1072 3584 1716 3584 
Q 2034 3584 2315 3537 
Q 2597 3491 2834 3397 
z
" transform="scale(0.015625)"/>
      </defs>
      <use xlink:href="#DejaVuSans-53"/>
      <use xlink:href="#DejaVuSans-61" transform="translate(63.476562 0)"/>
      <use xlink:href="#DejaVuSans-6d" transform="translate(124.755859 0)"/>
      <use xlink:href="#DejaVuSans-70" transform="translate(222.167969 0)"/>
      <use xlink:href="#DejaVuSans-6c" transform="translate(285.644531 0)"/>
      <use xlink:href="#DejaVuSans-65" transform="translate(313.427734 0)"/>
      <use xlink:href="#DejaVuSans-73" transform="translate(374.951172 0)"/>
     </g>
    </g>
   </g>
   <g id="matplotlib.axis_2">
    <g id="ytick_1">
     <g id="line2d_11">
      <path d="M 46.64 336.857593 
L 757.76 336.857593 
" clip-path="url(#p8e02df293d)" style="fill: none; stroke: #b0b0b0; stroke-opacity: 0.3; stroke-width: 0.8; stroke-linecap: square"/>
     </g>
     <g id="line2d_12">
      <defs>
       <path id="m155431bd07" d="M 0 0 
L -3.5 0 
" style="stroke: #000000; stroke-width: 0.8"/>
      </defs>
      <g>
       <use xlink:href="#m155431bd07" x="46.64" y="336.857593" style="stroke: #000000; stroke-width: 0.8"/>
      </g>
     </g>
     <g id="text_7">
      <!-- −3 -->
      <g transform="translate(24.897813 340.656811) scale(0.1 -0.1)">
       <defs>
        <path id="DejaVuSans-2212" d="M 678 2272 
L 4684 2272 
L 4684 1741 
L 678 1741 
L 678 2272 
z
" transform="scale(0.015625)"/>
        <path id="DejaVuSans-33" d="M 2597 2516 
Q 3050 2419 3304 2112 
Q 3559 1806 3559 1356 
Q 3559 666 3084 287 
Q 2609 -91 1734 -91 
Q 1441 -91 1130 -33 
Q 819 25 488 141 
L 488 750 
Q 750 597 1062 519 
Q 1375 441 1716 441 
Q 2309 441 2620 675 
Q 2931 909 2931 1356 
Q 2931 1769 2642 2001 
Q 2353 2234 1838 2234 
L 1294 2234 
L 1294 2753 
L 1863 2753 
Q 2328 2753 2575 2939 
Q 2822 3125 2822 3475 
Q 2822 3834 2567 4026 
Q 2313 4219 1838 4219 
Q 1578 4219 1281 4162 
Q 984 4106 628 3988 
L 628 4550 
Q 988 4650 1302 4700 
Q 1616 4750 1894 4750 
Q 2613 4750 3031 4423 
Q 3450 4097 3450 3541 
Q 3450 3153 3228 2886 
Q 3006 2619 2597 2516 
z
" transform="scale(0.015625)"/>
       </defs>
       <use xlink:href="#DejaVuSans-2212"/>
       <use xlink:href="#DejaVuSans-33" transform="translate(83.789062 0)"/>
      </g>
     </g>
    </g>
    <g id="ytick_2">
     <g id="line2d_13">
      <path d="M 46.64 263.489952 
L 757.76 263.489952 
" clip-path="url(#p8e02df293d)" style="fill: none; stroke: #b0b0b0; stroke-opacity: 0.3; stroke-width: 0.8; stroke-linecap: square"/>
     </g>
     <g id="line2d_14">
      <g>
       <use xlink:href="#m155431bd07" x="46.64" y="263.489952" style="stroke: #000000; stroke-width: 0.8"/>
      </g>
     </g>
     <g id="text_8">
      <!-- −2 -->
      <g transform="translate(24.897813 267.289171) scale(0.1 -0.1)">
       <use xlink:href="#DejaVuSans-2212"/>
       <use xlink:href="#DejaVuSans-32" transform="translate(83.789062 0)"/>
      </g>
     </g>
    </g>
    <g id="ytick_3">
     <g id="line2d_15">
      <path d="M 46.64 190.122312 
L 757.76 190.122312 
" clip-path="url(#p8e02df293d)" style="fill: none; stroke: #b0b0b0; stroke-opacity: 0.3; stroke-width: 0.8; stroke-linecap: square"/>
     </g>
     <g id="line2d_16">
      <g>
       <use xlink:href="#m155431bd07" x="46.64" y="190.122312" style="stroke: #000000; stroke-width: 0.8"/>
      </g>
     </g>
     <g id="text_9">
      <!-- −1 -->
      <g transform="translate(24.897813 193.921531) scale(0.1 -0.1)">
       <defs>
        <path id="DejaVuSans-31" d="M 794 531 
L 1825 531 
L 1825 4091 
L 703 3866 
L 703 4441 
L 1819 4666 
L 2450 4666 
L 2450 531 
L 3481 531 
L 3481 0 
L 794 0 
L 794 531 
z
" transform="scale(0.015625)"/>
       </defs>
       <use xlink:href="#DejaVuSans-2212"/>
       <use xlink:href="#DejaVuSans-31" transform="translate(83.789062 0)"/>
      </g>
     </g>
    </g>
    <g id="ytick_4">
     <g id="line2d_17">
      <path d="M 46.64 116.754672 
L 757.76 116.754672 
" clip-path="url(#p8e02df293d)" style="fill: none; stroke: #b0b0b0; stroke-opacity: 0.3; stroke-width: 0.8; stroke-linecap: square"/>
     </g>
     <g id="line2d_18">
      <g>
       <use xlink:href="#m155431bd07" x="46.64" y="116.754672" style="stroke: #000000; stroke-width: 0.8"/>
      </g>
     </g>
     <g id="text_10">
      <!-- 0 -->
      <g transform="translate(33.2775 120.553891) scale(0.1 -0.1)">
       <use xlink:href="#DejaVuSans-30"/>
      </g>
     </g>
    </g>
    <g id="ytick_5">
     <g id="line2d_19">
      <path d="M 46.64 43.387031 
L 757.76 43.387031 
" clip-path="url(#p8e02df293d)" style="fill: none; stroke: #b0b0b0; stroke-opacity: 0.3; stroke-width: 0.8; stroke-linecap: square"/>
     </g>
     <g id="line2d_20">
      <g>
       <use xlink:href="#m155431bd07" x="46.64" y="43.387031" style="stroke: #000000; stroke-width: 0.8"/>
      </g>
     </g>
     <g id="text_11">
      <!-- 1 -->
      <g transform="translate(33.2775 47.18625) scale(0.1 -0.1)">
       <use xlink:href="#DejaVuSans-31"/>
      </g>
     </g>
    </g>
    <g id="text_12">
     <!-- Amplitude (staggered for visibility) -->
     <g transform="translate(18.818125 295.477188) rotate(-90) scale(0.1 -0.1)">
      <defs>
       <path id="DejaVuSans-41" d="M 2188 4044 
L 1331 1722 
L 3047 1722 
L 2188 4044 
z
M 1831 4666 
L 2547 4666 
L 4325 0 
L 3669 0 
L 3244 1197 
L 1141 1197 
L 716 0 
L 50 0 
L 1831 4666 
z
" transform="scale(0.015625)"/>
       <path id="DejaVuSans-69" d="M 603 3500 
L 1178 3500 
L 1178 0 
L 603 0 
L 603 3500 
z
M 603 4863 
L 1178 4863 
L 1178 4134 
L 603 4134 
L 603 4863 
z
" transform="scale(0.015625)"/>
       <path id="DejaVuSans-74" d="M 1172 4494 
L 1172 3500 
L 2356 3500 
L 2356 3053 
L 1172 3053 
L 1172 1153 
Q 1172 725 1289 603 
Q 1406 481 1766 481 
L 2356 481 
L 2356 0 
L 1766 0 
Q 1100 0 847 248 
Q 594 497 594 1153 
L 594 3053 
L 172 3053 
L 172 3500 
L 594 3500 
L 594 4494 
L 1172 4494 
z
" transform="scale(0.015625)"/>
       <path id="DejaVuSans-75" d="M 544 1381 
L 544 3500 
L 1119 3500 
L 1119 1403 
Q 1119 906 1312 657 
Q 1506 409 1894 409 
Q 2359 409 2629 706 
Q 2900 1003 2900 1516 
L 2900 3500 
L 3475 3500 
L 3475 0 
L 2900 0 
L 2900 538 
Q 2691 219 2414 64 
Q 2138 -91 1772 -91 
Q 1169 -91 856 284 
Q 544 659 544 1381 
z
M 1991 3584 
L 1991 3584 
z
" transform="scale(0.015625)"/>
       <path id="DejaVuSans-64" d="M 2906 2969 
L 2906 4863 
L 3481 4863 
L 3481 0 
L 2906 0 
L 2906 525 
Q 2725 213 2448 61 
Q 2172 -91 1784 -91 
Q 1150 -91 751 415 
Q 353 922 353 1747 
Q 353 2572 751 3078 
Q 1150 3584 1784 3584 
Q 2172 3584 2448 3432 
Q 2725 3281 2906 2969 
z
M 947 1747 
Q 947 1113 1208 752 
Q 1469 391 1925 391 
Q 2381 391 2643 752 
Q 2906 1113 2906 1747 
Q 2906 2381 2643 2742 
Q 2381 3103 1925 3103 
Q 1469 3103 1208 2742 
Q 947 2381 947 1747 
z
" transform="scale(0.015625)"/>
       <path id="DejaVuSans-20" transform="scale(0.015625)"/>
       <path id="DejaVuSans-28" d="M 1984 4856 
Q 1566 4138 1362 3434 
Q 1159 2731 1159 2009 
Q 1159 1288 1364 580 
Q 1569 -128 1984 -844 
L 1484 -844 
Q 1016 -109 783 600 
Q 550 1309 550 2009 
Q 550 2706 781 3412 
Q 1013 4119 1484 4856 
L 1984 4856 
z
" transform="scale(0.015625)"/>
       <path id="DejaVuSans-67" d="M 2906 1791 
Q 2906 2416 2648 2759 
Q 2391 3103 1925 3103 
Q 1463 3103 1205 2759 
Q 947 2416 947 1791 
Q 947 1169 1205 825 
Q 1463 481 1925 481 
Q 2391 481 2648 825 
Q 2906 1169 2906 1791 
z
M 3481 434 
Q 3481 -459 3084 -895 
Q 2688 -1331 1869 -1331 
Q 1566 -1331 1297 -1286 
Q 1028 -1241 775 -1147 
L 775 -588 
Q 1028 -725 1275 -790 
Q 1522 -856 1778 -856 
Q 2344 -856 2625 -561 
Q 2906 -266 2906 331 
L 2906 616 
Q 2728 306 2450 153 
Q 2172 0 1784 0 
Q 1141 0 747 490 
Q 353 981 353 1791 
Q 353 2603 747 3093 
Q 1141 3584 1784 3584 
Q 2172 3584 2450 3431 
Q 2728 3278 2906 2969 
L 2906 3500 
L 3481 3500 
L 3481 434 
z
" transform="scale(0.015625)"/>
       <path id="DejaVuSans-72" d="M 2631 2963 
Q 2534 3019 2420 3045 
Q 2306 3072 2169 3072 
Q 1681 3072 1420 2755 
Q 1159 2438 1159 1844 
L 1159 0 
L 581 0 
L 581 3500 
L 1159 3500 
L 1159 2956 
Q 1341 3275 1631 3429 
Q 1922 3584 2338 3584 
Q 2397 3584 2469 3576 
Q 2541 3569 2628 3553 
L 2631 2963 
z
" transform="scale(0.015625)"/>
       <path id="DejaVuSans-66" d="M 2375 4863 
L 2375 4384 
L 1825 4384 
Q 1516 4384 1395 4259 
Q 1275 4134 1275 3809 
L 1275 3500 
L 2222 3500 
L 2222 3053 
L 1275 3053 
L 1275 0 
L 697 0 
L 697 3053 
L 147 3053 
L 147 3500 
L 697 3500 
L 697 3744 
Q 697 4328 969 4595 
Q 1241 4863 1831 4863 
L 2375 4863 
z
" transform="scale(0.015625)"/>
       <path id="DejaVuSans-6f" d="M 1959 3097 
Q 1497 3097 1228 2736 
Q 959 2375 959 1747 
Q 959 1119 1226 758 
Q 1494 397 1959 397 
Q 2419 397 2687 759 
Q 2956 1122 2956 1747 
Q 2956 2369 2687 2733 
Q 2419 3097 1959 3097 
z
M 1959 3584 
Q 2709 3584 3137 3096 
Q 3566 2609 3566 1747 
Q 3566 888 3137 398 
Q 2709 -91 1959 -91 
Q 1206 -91 779 398 
Q 353 888 353 1747 
Q 353 2609 779 3096 
Q 1206 3584 1959 3584 
z
" transform="scale(0.015625)"/>
       <path id="DejaVuSans-76" d="M 191 3500 
L 800 3500 
L 1894 563 
L 2988 3500 
L 3597 3500 
L 2284 0 
L 1503 0 
L 191 3500 
z
" transform="scale(0.015625)"/>
       <path id="DejaVuSans-62" d="M 3116 1747 
Q 3116 2381 2855 2742 
Q 2594 3103 2138 3103 
Q 1681 3103 1420 2742 
Q 1159 2381 1159 1747 
Q 1159 1113 1420 752 
Q 1681 391 2138 391 
Q 2594 391 2855 752 
Q 3116 1113 3116 1747 
z
M 1159 2969 
Q 1341 3281 1617 3432 
Q 1894 3584 2278 3584 
Q 2916 3584 3314 3078 
Q 3713 2572 3713 1747 
Q 3713 922 3314 415 
Q 2916 -91 2278 -91 
Q 1894 -91 1617 61 
Q 1341 213 1159 525 
L 1159 0 
L 581 0 
L 581 4863 
L 1159 4863 
L 1159 2969 
z
" transform="scale(0.015625)"/>
       <path id="DejaVuSans-79" d="M 2059 -325 
Q 1816 -950 1584 -1140 
Q 1353 -1331 966 -1331 
L 506 -1331 
L 506 -850 
L 844 -850 
Q 1081 -850 1212 -737 
Q 1344 -625 1503 -206 
L 1606 56 
L 191 3500 
L 800 3500 
L 1894 763 
L 2988 3500 
L 3597 3500 
L 2059 -325 
z
" transform="scale(0.015625)"/>
       <path id="DejaVuSans-29" d="M 513 4856 
L 1013 4856 
Q 1481 4119 1714 3412 
Q 1947 2706 1947 2009 
Q 1947 1309 1714 600 
Q 1481 -109 1013 -844 
L 513 -844 
Q 928 -128 1133 580 
Q 1338 1288 1338 2009 
Q 1338 2731 1133 3434 
Q 928 4138 513 4856 
z
" transform="scale(0.015625)"/>
      </defs>
      <use xlink:href="#DejaVuSans-41"/>
      <use xlink:href="#DejaVuSans-6d" transform="translate(68.408203 0)"/>
      <use xlink:href="#DejaVuSans-70" transform="translate(165.820312 0)"/>
      <use xlink:href="#DejaVuSans-6c" transform="translate(229.296875 0)"/>
      <use xlink:href="#DejaVuSans-69" transform="translate(257.080078 0)"/>
      <use xlink:href="#DejaVuSans-74" transform="translate(284.863281 0)"/>
      <use xlink:href="#DejaVuSans-75" transform="translate(324.072266 0)"/>
      <use xlink:href="#DejaVuSans-64" transform="translate(387.451172 0)"/>
      <use xlink:href="#DejaVuSans-65" transform="translate(450.927734 0)"/>
      <use xlink:href="#DejaVuSans-20" transform="translate(512.451172 0)"/>
      <use xlink:href="#DejaVuSans-28" transform="translate(544.238281 0)"/>
      <use xlink:href="#DejaVuSans-73" transform="translate(583.251953 0)"/>
      <use xlink:href="#DejaVuSans-74" transform="translate(635.351562 0)"/>
      <use xlink:href="#DejaVuSans-61" transform="translate(674.560547 0)"/>
      <use xlink:href="#DejaVuSans-67" transform="translate(735.839844 0)"/>
      <use xlink:href="#DejaVuSans-67" transform="translate(799.316406 0)"/>
      <use xlink:href="#DejaVuSans-65" transform="translate(862.792969 0)"/>
      <use xlink:href="#DejaVuSans-72" transform="translate(924.316406 0)"/>
      <use xlink:href="#DejaVuSans-65" transform="translate(963.179688 0)"/>
      <use xlink:href="#DejaVuSans-64" transform="translate(1024.703125 0)"/>
      <use xlink:href="#DejaVuSans-20" transform="translate(1088.179688 0)"/>
      <use xlink:href="#DejaVuSans-66" transform="translate(1119.966797 0)"/>
      <use xlink:href="#DejaVuSans-6f" transform="translate(1155.171875 0)"/>
      <use xlink:href="#DejaVuSans-72" transform="translate(1216.353516 0)"/>
      <use xlink:href="#DejaVuSans-20" transform="translate(1257.466797 0)"/>
      <use xlink:href="#DejaVuSans-76" transform="translate(1289.253906 0)"/>
      <use xlink:href="#DejaVuSans-69" transform="translate(1348.433594 0)"/>
      <use xlink:href="#DejaVuSans-73" transform="translate(1376.216797 0)"/>
      <use xlink:href="#DejaVuSans-69" transform="translate(1428.316406 0)"/>
      <use xlink:href="#DejaVuSans-62" transform="translate(1456.099609 0)"/>
      <use xlink:href="#DejaVuSans-69" transform="translate(1519.576172 0)"/>
      <use xlink:href="#DejaVuSans-6c" transform="translate(1547.359375 0)"/>
      <use xlink:href="#DejaVuSans-69" transform="translate(1575.142578 0)"/>
      <use xlink:href="#DejaVuSans-74" transform="translate(1602.925781 0)"/>
      <use xlink:href="#DejaVuSans-79" transform="translate(1642.134766 0)"/>
      <use xlink:href="#DejaVuSans-29" transform="translate(1701.314453 0)"/>
     </g>
    </g>
   </g>
   <g id="line2d_21">
    <path d="M 78.963636 116.754672 
L 84.735714 95.249076 
L 88.343263 82.652622 
L 91.229302 73.402242 
L 93.393831 67.082338 
L 95.55836 61.379982 
L 97.72289 56.366067 
L 99.165909 53.437083 
L 100.608929 50.858164 
L 102.051948 48.643567 
L 103.494968 46.805536 
L 104.937987 45.354233 
L 106.381006 44.297682 
L 107.824026 43.641725 
L 109.267045 43.389987 
L 110.710065 43.543861 
L 112.153084 44.102496 
L 113.596104 45.062803 
L 115.039123 46.419474 
L 116.482143 48.165007 
L 117.925162 50.289751 
L 119.368182 52.781961 
L 120.811201 55.627857 
L 122.975731 60.524931 
L 125.14026 66.121077 
L 127.304789 72.34672 
L 130.190828 81.492012 
L 133.076867 91.416053 
L 137.405925 107.279328 
L 146.785552 142.181559 
L 149.671591 152.099802 
L 152.55763 161.237474 
L 154.722159 167.456308 
L 156.886688 173.044797 
L 159.051218 177.933464 
L 160.494237 180.77339 
L 161.937256 183.259375 
L 163.380276 185.377676 
L 164.823295 187.11658 
L 166.266315 188.466474 
L 167.709334 189.419894 
L 169.152354 189.97157 
L 170.595373 190.118452 
L 172.038393 189.859727 
L 173.481412 189.196825 
L 174.924432 188.133412 
L 176.367451 186.675368 
L 177.810471 184.830752 
L 179.25349 182.609764 
L 180.69651 180.024683 
L 182.139529 177.0898 
L 184.304058 172.0676 
L 186.468588 166.357727 
L 188.633117 160.031168 
L 191.519156 150.773396 
L 194.405195 140.764346 
L 198.734253 124.828996 
L 207.39237 92.567281 
L 210.999919 80.179537 
L 213.885958 71.157953 
L 216.050487 65.04249 
L 218.215016 59.569935 
L 220.379545 54.808324 
L 221.822565 52.058507 
L 223.265584 49.666375 
L 224.708604 47.645155 
L 226.151623 46.006021 
L 227.594643 44.758036 
L 229.037662 43.908098 
L 230.480682 43.460908 
L 231.923701 43.418937 
L 233.366721 43.782418 
L 234.80974 44.549341 
L 236.25276 45.715465 
L 237.695779 47.274345 
L 239.138799 49.217361 
L 240.581818 51.53377 
L 242.024838 54.210767 
L 244.189367 58.869462 
L 246.353896 64.24781 
L 248.518425 70.278945 
L 250.682955 76.887886 
L 253.568994 86.455694 
L 257.176542 99.33018 
L 263.67013 123.706005 
L 268.720698 142.269786 
L 271.606737 152.182214 
L 274.492776 161.312252 
L 276.657305 167.524265 
L 278.821834 173.10509 
L 280.986364 177.985342 
L 282.429383 180.819293 
L 283.872403 183.299049 
L 285.315422 185.410902 
L 286.758442 187.143174 
L 288.201461 188.486289 
L 289.644481 189.432822 
L 291.0875 189.977538 
L 292.530519 190.117426 
L 293.973539 189.851714 
L 295.416558 189.18187 
L 296.859578 188.111597 
L 298.302597 186.646813 
L 299.745617 184.795615 
L 301.188636 182.56824 
L 302.631656 179.977001 
L 304.074675 177.036224 
L 306.239205 172.005748 
L 308.403734 166.288368 
L 310.568263 159.955164 
L 313.454302 150.690015 
L 316.340341 140.675429 
L 320.669399 124.735483 
L 329.327516 92.478482 
L 332.935065 80.098013 
L 335.821104 71.084287 
L 337.985633 64.975797 
L 340.150162 59.511043 
L 342.314692 54.757966 
L 343.757711 52.014192 
L 345.200731 49.628349 
L 346.64375 47.613628 
L 348.086769 45.981168 
L 349.529789 44.739993 
L 350.972808 43.896966 
L 352.415828 43.456747 
L 353.858847 43.421772 
L 355.301867 43.792232 
L 356.744886 44.56608 
L 358.187906 45.739037 
L 359.630925 47.304619 
L 361.073945 49.254169 
L 362.516964 51.57691 
L 363.959984 54.26 
L 366.124513 58.927313 
L 368.289042 64.313561 
L 370.453571 70.351778 
L 372.618101 76.966896 
L 375.50414 86.5414 
L 379.111688 99.421581 
L 385.605276 123.799655 
L 390.655844 142.357971 
L 393.541883 152.264568 
L 396.427922 161.386956 
L 398.592451 167.592139 
L 400.756981 173.165289 
L 402.92151 178.037119 
L 404.364529 180.86509 
L 405.807549 183.338614 
L 407.250568 185.444015 
L 408.693588 187.169653 
L 410.136607 188.505987 
L 411.579627 189.445629 
L 413.022646 189.983385 
L 414.465666 190.11628 
L 415.908685 189.843581 
L 417.351705 189.166795 
L 418.794724 188.089664 
L 420.237744 186.618143 
L 421.680763 184.760367 
L 423.123782 182.526608 
L 424.566802 179.929215 
L 426.009821 176.982549 
L 428.174351 171.943805 
L 430.33888 166.218927 
L 432.503409 159.879089 
L 435.389448 150.606577 
L 438.275487 140.586472 
L 442.604545 124.641957 
L 451.262662 92.389723 
L 454.870211 80.016549 
L 457.75625 71.010696 
L 459.920779 64.909188 
L 462.085308 59.452245 
L 464.249838 54.707709 
L 465.692857 51.969984 
L 467.135877 49.590434 
L 468.578896 47.582215 
L 470.021916 45.95643 
L 471.464935 44.722068 
L 472.907955 43.885953 
L 474.350974 43.452707 
L 475.793994 43.424727 
L 477.237013 43.802165 
L 478.680032 44.582937 
L 480.123052 45.762725 
L 481.566071 47.335007 
L 483.009091 49.291089 
L 484.45211 51.620157 
L 485.89513 54.309335 
L 488.059659 58.98526 
L 490.224188 64.379398 
L 492.388718 70.424688 
L 494.553247 77.045971 
L 497.439286 86.627156 
L 501.046834 99.51301 
L 507.540422 123.893292 
L 512.59099 142.446113 
L 515.477029 152.346864 
L 518.363068 161.461587 
L 520.527597 167.659929 
L 522.692127 173.225396 
L 524.856656 178.088795 
L 526.299675 180.910782 
L 527.742695 183.378069 
L 529.185714 185.477015 
L 530.628734 187.196016 
L 532.071753 188.525567 
L 533.514773 189.458317 
L 534.957792 189.989111 
L 536.400812 190.115014 
L 537.843831 189.835329 
L 539.286851 189.151602 
L 540.72987 188.067614 
L 542.17289 186.589358 
L 543.615909 184.725007 
L 545.058929 182.484867 
L 546.501948 179.881325 
L 547.944968 176.928775 
L 550.109497 171.881771 
L 552.274026 166.149405 
L 554.438555 159.802943 
L 557.324594 150.523084 
L 560.210633 140.497476 
L 564.539692 124.548417 
L 573.197808 92.301004 
L 576.805357 79.935146 
L 579.691396 70.937181 
L 581.855925 64.842665 
L 584.020455 59.393541 
L 586.184984 54.657554 
L 587.628003 51.925882 
L 589.071023 49.552628 
L 590.514042 47.550915 
L 591.957062 45.931809 
L 593.400081 44.704262 
L 594.843101 43.87506 
L 596.28612 43.448788 
L 597.72914 43.427802 
L 599.172159 43.812219 
L 600.615179 44.599914 
L 602.058198 45.78653 
L 603.501218 47.365509 
L 604.944237 49.328119 
L 606.387256 51.663512 
L 607.830276 54.358773 
L 609.994805 59.043302 
L 612.159334 64.445322 
L 614.323864 70.497674 
L 616.488393 77.125112 
L 619.374432 86.712961 
L 622.981981 99.604467 
L 629.475568 123.986918 
L 634.526136 142.534213 
L 637.412175 152.429101 
L 640.298214 161.536145 
L 642.462744 167.727636 
L 644.627273 173.28541 
L 646.791802 178.140371 
L 648.234821 180.956369 
L 649.677841 183.417415 
L 651.12086 185.509902 
L 652.56388 187.222262 
L 654.006899 188.545028 
L 655.449919 189.470886 
L 656.892938 189.994718 
L 658.335958 190.113627 
L 659.778977 189.826956 
L 661.221997 189.136289 
L 662.665016 188.045447 
L 664.108036 186.560458 
L 665.551055 184.689535 
L 666.994075 182.443019 
L 668.437094 179.833332 
L 669.880114 176.874902 
L 672.044643 171.819647 
L 674.209172 166.079802 
L 676.373701 159.726726 
L 679.25974 150.439536 
L 682.145779 140.408441 
L 686.474838 124.454865 
L 695.132955 92.212326 
L 698.018994 82.236837 
L 700.905032 73.023649 
L 703.069562 66.737177 
L 705.234091 61.072544 
L 707.39862 56.100174 
L 708.84164 53.200758 
L 710.284659 50.652712 
L 711.727679 48.470124 
L 713.170698 46.665062 
L 714.613718 45.247505 
L 716.056737 44.225289 
L 717.499756 43.604067 
L 718.942776 43.387273 
L 720.385795 43.576105 
L 721.828815 44.169521 
L 723.271834 45.164238 
L 724.714854 46.554757 
L 724.714854 46.554757 
" clip-path="url(#p8e02df293d)" style="fill: none; stroke: #000000; stroke-opacity: 0.2; stroke-width: 1.5; stroke-linecap: square"/>
   </g>
   <g id="line2d_22">
    <path d="M 78.963636 116.754672 
L 84.735714 95.249076 
L 88.343263 82.652622 
L 91.229302 73.402242 
L 93.393831 67.082338 
L 95.55836 61.379982 
L 97.72289 56.366067 
L 99.165909 53.437083 
L 100.608929 50.858164 
L 102.051948 48.643567 
L 103.494968 46.805536 
L 104.937987 45.354233 
L 106.381006 44.297682 
L 107.824026 43.641725 
L 109.267045 43.389987 
L 110.710065 43.543861 
L 112.153084 44.102496 
L 113.596104 45.062803 
L 115.039123 46.419474 
L 116.482143 48.165007 
L 117.925162 50.289751 
L 119.368182 52.781961 
L 120.811201 55.627857 
L 122.975731 60.524931 
L 125.14026 66.121077 
L 127.304789 72.34672 
L 130.190828 81.492012 
L 133.076867 91.416053 
L 137.405925 107.279328 
L 146.785552 142.181559 
L 149.671591 152.099802 
L 152.55763 161.237474 
L 154.722159 167.456308 
L 156.886688 173.044797 
L 159.051218 177.933464 
L 160.494237 180.77339 
L 161.937256 183.259375 
L 163.380276 185.377676 
L 164.823295 187.11658 
L 166.266315 188.466474 
L 167.709334 189.419894 
L 169.152354 189.97157 
L 170.595373 190.118452 
L 172.038393 189.859727 
L 173.481412 189.196825 
L 174.924432 188.133412 
L 176.367451 186.675368 
L 177.810471 184.830752 
L 179.25349 182.609764 
L 180.69651 180.024683 
L 182.139529 177.0898 
L 184.304058 172.0676 
L 186.468588 166.357727 
L 188.633117 160.031168 
L 191.519156 150.773396 
L 194.405195 140.764346 
L 198.734253 124.828996 
L 207.39237 92.567281 
L 210.999919 80.179537 
L 213.885958 71.157953 
L 216.050487 65.04249 
L 218.215016 59.569935 
L 220.379545 54.808324 
L 221.822565 52.058507 
L 223.265584 49.666375 
L 224.708604 47.645155 
L 226.151623 46.006021 
L 227.594643 44.758036 
L 229.037662 43.908098 
L 230.480682 43.460908 
L 231.923701 43.418937 
L 233.366721 43.782418 
L 234.80974 44.549341 
L 236.25276 45.715465 
L 237.695779 47.274345 
L 239.138799 49.217361 
L 240.581818 51.53377 
L 242.024838 54.210767 
L 244.189367 58.869462 
L 246.353896 64.24781 
L 248.518425 70.278945 
L 250.682955 76.887886 
L 253.568994 86.455694 
L 257.176542 99.33018 
L 262.94862 120.985835 
L 262.94862 120.985835 
" clip-path="url(#p8e02df293d)" style="fill: none; stroke: #440154; stroke-width: 2; stroke-linecap: square"/>
   </g>
   <g id="LineCollection_1">
    <path d="M 78.963636 146.101728 
L 171.316883 146.101728 
" clip-path="url(#p8e02df293d)" style="fill: none; stroke-dasharray: 5.55,2.4; stroke-dashoffset: 0; stroke: #440154; stroke-width: 1.5"/>
   </g>
   <g id="line2d_23">
    <path d="M 171.316883 226.723573 
L 172.759903 226.262441 
L 174.202922 225.398687 
L 175.645942 224.137086 
L 177.088961 222.484613 
L 178.531981 220.450405 
L 179.975 218.045708 
L 181.418019 215.283817 
L 183.582549 210.505162 
L 185.747078 205.017031 
L 187.911607 198.887654 
L 190.797646 189.850398 
L 193.683685 180.009012 
L 197.291234 166.908881 
L 208.83539 124.171231 
L 211.721429 114.524113 
L 214.607468 105.73639 
L 216.771997 99.827158 
L 218.936526 94.584445 
L 221.101055 90.07343 
L 222.544075 87.500677 
L 223.987094 85.292474 
L 225.430114 83.461031 
L 226.873133 82.016473 
L 228.316153 80.966785 
L 229.759172 80.317773 
L 231.202192 80.073023 
L 232.645211 80.233889 
L 234.088231 80.799482 
L 235.53125 81.766675 
L 236.974269 83.130119 
L 238.417289 84.882278 
L 239.860308 87.013464 
L 241.303328 89.511895 
L 242.746347 92.363756 
L 244.910877 97.269229 
L 247.075406 102.873021 
L 249.239935 109.105464 
L 252.125974 118.25836 
L 255.012013 128.188183 
L 259.341071 144.056446 
L 268.720698 178.953606 
L 271.606737 188.866034 
L 274.492776 197.996072 
L 276.657305 204.208085 
L 278.821834 209.78891 
L 280.986364 214.669162 
L 282.429383 217.503113 
L 283.872403 219.98287 
L 285.315422 222.094722 
L 286.758442 223.826994 
L 288.201461 225.170109 
L 289.644481 226.116642 
L 291.0875 226.661358 
L 292.530519 226.801247 
L 293.973539 226.535534 
L 295.416558 225.86569 
L 296.859578 224.795417 
L 298.302597 223.330633 
L 299.745617 221.479436 
L 301.188636 219.25206 
L 302.631656 216.660821 
L 304.074675 213.720044 
L 306.239205 208.689568 
L 308.403734 202.972188 
L 310.568263 196.638984 
L 313.454302 187.373835 
L 316.340341 177.359249 
L 320.669399 161.419303 
L 329.327516 129.162302 
L 332.935065 116.781833 
L 335.821104 107.768107 
L 337.985633 101.659617 
L 340.150162 96.194863 
L 342.314692 91.441786 
L 343.757711 88.698012 
L 345.200731 86.312169 
L 346.64375 84.297448 
L 348.086769 82.664988 
L 349.529789 81.423813 
L 350.972808 80.580786 
L 352.415828 80.140567 
L 353.858847 80.105592 
L 355.301867 80.476052 
L 355.301867 80.476052 
" clip-path="url(#p8e02df293d)" style="fill: none; stroke: #414487; stroke-width: 2; stroke-linecap: square"/>
   </g>
   <g id="LineCollection_2">
    <path d="M 171.316883 182.785548 
L 263.67013 182.785548 
" clip-path="url(#p8e02df293d)" style="fill: none; stroke-dasharray: 5.55,2.4; stroke-dashoffset: 0; stroke: #414487; stroke-width: 1.5"/>
   </g>
   <g id="line2d_24">
    <path d="M 263.67013 197.073646 
L 268.720698 215.637426 
L 271.606737 225.549854 
L 274.492776 234.679892 
L 276.657305 240.891905 
L 278.821834 246.47273 
L 280.986364 251.352982 
L 282.429383 254.186933 
L 283.872403 256.66669 
L 285.315422 258.778542 
L 286.758442 260.510815 
L 288.201461 261.85393 
L 289.644481 262.800462 
L 291.0875 263.345178 
L 292.530519 263.485067 
L 293.973539 263.219354 
L 295.416558 262.54951 
L 296.859578 261.479237 
L 298.302597 260.014453 
L 299.745617 258.163256 
L 301.188636 255.93588 
L 302.631656 253.344641 
L 304.074675 250.403864 
L 306.239205 245.373388 
L 308.403734 239.656008 
L 310.568263 233.322804 
L 313.454302 224.057655 
L 316.340341 214.043069 
L 320.669399 198.103123 
L 329.327516 165.846122 
L 332.935065 153.465653 
L 335.821104 144.451927 
L 337.985633 138.343437 
L 340.150162 132.878683 
L 342.314692 128.125606 
L 343.757711 125.381832 
L 345.200731 122.99599 
L 346.64375 120.981268 
L 348.086769 119.348808 
L 349.529789 118.107633 
L 350.972808 117.264606 
L 352.415828 116.824388 
L 353.858847 116.789412 
L 355.301867 117.159872 
L 356.744886 117.93372 
L 358.187906 119.106677 
L 359.630925 120.672259 
L 361.073945 122.62181 
L 362.516964 124.944551 
L 363.959984 127.62764 
L 366.124513 132.294954 
L 368.289042 137.681201 
L 370.453571 143.719419 
L 372.618101 150.334536 
L 375.50414 159.90904 
L 379.111688 172.789221 
L 385.605276 197.167295 
L 390.655844 215.725611 
L 393.541883 225.632208 
L 396.427922 234.754596 
L 398.592451 240.959779 
L 400.756981 246.53293 
L 402.92151 251.404759 
L 404.364529 254.232731 
L 405.807549 256.706254 
L 407.250568 258.811655 
L 408.693588 260.537293 
L 410.136607 261.873627 
L 411.579627 262.81327 
L 413.022646 263.351025 
L 414.465666 263.483921 
L 415.908685 263.211222 
L 417.351705 262.534436 
L 418.794724 261.457304 
L 420.237744 259.985783 
L 421.680763 258.128007 
L 423.123782 255.894248 
L 424.566802 253.296855 
L 426.009821 250.350189 
L 428.174351 245.311445 
L 430.33888 239.586567 
L 432.503409 233.246729 
L 435.389448 223.974218 
L 438.275487 213.954112 
L 442.604545 198.009597 
L 447.655114 178.970418 
L 447.655114 178.970418 
" clip-path="url(#p8e02df293d)" style="fill: none; stroke: #2a788e; stroke-width: 2; stroke-linecap: square"/>
   </g>
   <g id="LineCollection_3">
    <path d="M 263.67013 219.469368 
L 356.023377 219.469368 
" clip-path="url(#p8e02df293d)" style="fill: none; stroke-dasharray: 5.55,2.4; stroke-dashoffset: 0; stroke: #2a788e; stroke-width: 1.5"/>
   </g>
   <g id="line2d_25">
    <path d="M 356.023377 154.180408 
L 357.466396 155.154484 
L 358.909416 156.524701 
L 360.352435 158.283483 
L 361.795455 160.421106 
L 363.238474 162.925753 
L 364.681494 165.783576 
L 366.846023 170.697439 
L 369.010552 176.308868 
L 371.175081 182.548101 
L 374.06112 191.708587 
L 376.947159 201.644175 
L 381.276218 217.5174 
L 390.655844 252.409431 
L 393.541883 262.316029 
L 396.427922 271.438417 
L 398.592451 277.643599 
L 400.756981 283.21675 
L 402.92151 288.088579 
L 404.364529 290.916551 
L 405.807549 293.390075 
L 407.250568 295.495475 
L 408.693588 297.221113 
L 410.136607 298.557447 
L 411.579627 299.49709 
L 413.022646 300.034845 
L 414.465666 300.167741 
L 415.908685 299.895042 
L 417.351705 299.218256 
L 418.794724 298.141125 
L 420.237744 296.669603 
L 421.680763 294.811827 
L 423.123782 292.578068 
L 424.566802 289.980675 
L 426.009821 287.034009 
L 428.174351 281.995266 
L 430.33888 276.270388 
L 432.503409 269.930549 
L 435.389448 260.658038 
L 438.275487 250.637932 
L 442.604545 234.693417 
L 451.262662 202.441184 
L 454.870211 190.068009 
L 457.75625 181.062157 
L 459.920779 174.960649 
L 462.085308 169.503705 
L 464.249838 164.759169 
L 465.692857 162.021444 
L 467.135877 159.641894 
L 468.578896 157.633675 
L 470.021916 156.007891 
L 471.464935 154.773528 
L 472.907955 153.937413 
L 474.350974 153.504168 
L 475.793994 153.476187 
L 477.237013 153.853626 
L 478.680032 154.634398 
L 480.123052 155.814186 
L 481.566071 157.386467 
L 483.009091 159.342549 
L 484.45211 161.671618 
L 485.89513 164.360796 
L 488.059659 169.03672 
L 490.224188 174.430859 
L 492.388718 180.476148 
L 494.553247 187.097432 
L 497.439286 196.678616 
L 501.046834 209.56447 
L 507.540422 233.944753 
L 512.59099 252.497574 
L 515.477029 262.398324 
L 518.363068 271.513048 
L 520.527597 277.71139 
L 522.692127 283.276857 
L 524.856656 288.140256 
L 526.299675 290.962243 
L 527.742695 293.42953 
L 529.185714 295.528476 
L 530.628734 297.247476 
L 532.071753 298.577027 
L 533.514773 299.509778 
L 534.957792 300.040572 
L 536.400812 300.166474 
L 537.843831 299.886789 
L 539.286851 299.203062 
L 540.00836 298.710778 
L 540.00836 298.710778 
" clip-path="url(#p8e02df293d)" style="fill: none; stroke: #22a884; stroke-width: 2; stroke-linecap: square"/>
   </g>
   <g id="LineCollection_4">
    <path d="M 356.023377 256.153188 
L 448.376623 256.153188 
" clip-path="url(#p8e02df293d)" style="fill: none; stroke-dasharray: 5.55,2.4; stroke-dashoffset: 0; stroke: #22a884; stroke-width: 1.5"/>
   </g>
   <g id="line2d_26">
    <path d="M 448.376623 249.649827 
L 452.705682 234.050251 
L 455.591721 224.416193 
L 458.47776 215.64505 
L 460.642289 209.750345 
L 462.806818 204.523754 
L 464.971347 200.030255 
L 466.414367 197.469848 
L 467.857386 195.274446 
L 469.300406 193.456187 
L 470.743425 192.025124 
L 472.186445 190.989169 
L 473.629464 190.35405 
L 475.072484 190.123277 
L 476.515503 190.298127 
L 477.958523 190.877633 
L 479.401542 191.858591 
L 480.844562 193.235578 
L 482.287581 195.00098 
L 483.730601 197.145038 
L 485.17362 199.655897 
L 486.61664 202.519675 
L 488.781169 207.441921 
L 490.945698 213.060979 
L 493.110227 219.306991 
L 495.996266 228.47505 
L 498.882305 238.416388 
L 503.211364 254.294549 
L 512.59099 289.181394 
L 515.477029 299.082144 
L 518.363068 308.196868 
L 520.527597 314.39521 
L 522.692127 319.960677 
L 524.856656 324.824076 
L 526.299675 327.646063 
L 527.742695 330.11335 
L 529.185714 332.212296 
L 530.628734 333.931296 
L 532.071753 335.260847 
L 533.514773 336.193598 
L 534.957792 336.724392 
L 536.400812 336.850294 
L 537.843831 336.570609 
L 539.286851 335.886883 
L 540.72987 334.802895 
L 542.17289 333.324639 
L 543.615909 331.460287 
L 545.058929 329.220148 
L 546.501948 326.616606 
L 547.944968 323.664055 
L 550.109497 318.617052 
L 552.274026 312.884686 
L 554.438555 306.538223 
L 557.324594 297.258365 
L 560.210633 287.232756 
L 564.539692 271.283698 
L 573.197808 239.036285 
L 576.805357 226.670426 
L 579.691396 217.672461 
L 581.855925 211.577945 
L 584.020455 206.128821 
L 586.184984 201.392835 
L 587.628003 198.661162 
L 589.071023 196.287909 
L 590.514042 194.286196 
L 591.957062 192.66709 
L 593.400081 191.439542 
L 594.843101 190.61034 
L 596.28612 190.184068 
L 597.72914 190.163083 
L 599.172159 190.5475 
L 600.615179 191.335194 
L 602.058198 192.521811 
L 603.501218 194.100789 
L 604.944237 196.0634 
L 606.387256 198.398792 
L 607.830276 201.094054 
L 609.994805 205.778582 
L 612.159334 211.180602 
L 614.323864 217.232954 
L 616.488393 223.860392 
L 619.374432 233.448241 
L 622.981981 246.339748 
L 629.475568 270.722198 
L 632.361607 281.462241 
L 632.361607 281.462241 
" clip-path="url(#p8e02df293d)" style="fill: none; stroke: #7ad151; stroke-width: 2; stroke-linecap: square"/>
   </g>
   <g id="LineCollection_5">
    <path d="M 448.376623 292.837008 
L 540.72987 292.837008 
" clip-path="url(#p8e02df293d)" style="fill: none; stroke-dasharray: 5.55,2.4; stroke-dashoffset: 0; stroke: #7ad151; stroke-width: 1.5"/>
   </g>
   <g id="line2d_27">
    <path d="M 540.72987 371.486715 
L 542.17289 370.008459 
L 543.615909 368.144107 
L 545.058929 365.903968 
L 546.501948 363.300426 
L 547.944968 360.347875 
L 550.109497 355.300872 
L 552.274026 349.568506 
L 554.438555 343.222043 
L 557.324594 333.942185 
L 560.210633 323.916576 
L 564.539692 307.967518 
L 573.197808 275.720105 
L 576.805357 263.354246 
L 579.691396 254.356281 
L 581.855925 248.261766 
L 584.020455 242.812642 
L 586.184984 238.076655 
L 587.628003 235.344982 
L 589.071023 232.971729 
L 590.514042 230.970016 
L 591.957062 229.35091 
L 593.400081 228.123363 
L 594.843101 227.294161 
L 596.28612 226.867888 
L 597.72914 226.846903 
L 599.172159 227.23132 
L 600.615179 228.019014 
L 602.058198 229.205631 
L 603.501218 230.784609 
L 604.944237 232.74722 
L 606.387256 235.082612 
L 607.830276 237.777874 
L 609.994805 242.462402 
L 612.159334 247.864423 
L 614.323864 253.916774 
L 616.488393 260.544213 
L 619.374432 270.132061 
L 622.981981 283.023568 
L 629.475568 307.406019 
L 634.526136 325.953314 
L 637.412175 335.848201 
L 640.298214 344.955245 
L 642.462744 351.146737 
L 644.627273 356.704511 
L 646.791802 361.559471 
L 648.234821 364.37547 
L 649.677841 366.836516 
L 651.12086 368.929003 
L 652.56388 370.641363 
L 654.006899 371.964129 
L 655.449919 372.889987 
L 656.892938 373.413818 
L 658.335958 373.532727 
L 659.778977 373.246056 
L 661.221997 372.55539 
L 662.665016 371.464548 
L 664.108036 369.979559 
L 665.551055 368.108635 
L 666.994075 365.86212 
L 668.437094 363.252433 
L 669.880114 360.294002 
L 672.044643 355.238748 
L 674.209172 349.498902 
L 676.373701 343.145826 
L 679.25974 333.858636 
L 682.145779 323.827541 
L 686.474838 307.873966 
L 695.132955 275.631427 
L 698.018994 265.655938 
L 700.905032 256.442749 
L 703.069562 250.156278 
L 705.234091 244.491644 
L 707.39862 239.519275 
L 708.84164 236.619858 
L 710.284659 234.071813 
L 711.727679 231.889225 
L 713.170698 230.084163 
L 714.613718 228.666605 
L 716.056737 227.64439 
L 717.499756 227.023168 
L 718.942776 226.806373 
L 720.385795 226.995206 
L 721.828815 227.588621 
L 723.271834 228.583339 
L 724.714854 229.973858 
L 724.714854 229.973858 
" clip-path="url(#p8e02df293d)" style="fill: none; stroke: #fde725; stroke-width: 2; stroke-linecap: square"/>
   </g>
   <g id="patch_9">
    <path d="M 46.64 390.04 
L 46.64 26.88 
" style="fill: none; stroke: #000000; stroke-width: 0.8; stroke-linejoin: miter; stroke-linecap: square"/>
   </g>
   <g id="patch_10">
    <path d="M 757.76 390.04 
L 757.76 26.88 
" style="fill: none; stroke: #000000; stroke-width: 0.8; stroke-linejoin: miter; stroke-linecap: square"/>
   </g>
   <g id="patch_11">
    <path d="M 46.64 390.04 
L 757.76 390.04 
" style="fill: none; stroke: #000000; stroke-width: 0.8; stroke-linejoin: miter; stroke-linecap: square"/>
   </g>
   <g id="patch_12">
    <path d="M 46.64 26.88 
L 757.76 26.88 
" style="fill: none; stroke: #000000; stroke-width: 0.8; stroke-linejoin: miter; stroke-linecap: square"/>
   </g>
   <g id="patch_13">
    <path d="M 78.963636 129.425636 
Q 78.963636 124.0909 78.963636 119.874198 
" style="fill: none; stroke: #440154; stroke-linecap: round"/>
    <path d="M 76.963636 123.874198 
L 78.963636 119.874198 
L 80.963636 123.874198 
" style="fill: none; stroke: #440154; stroke-linecap: round"/>
   </g>
   <g id="text_13">
    <!-- Hop 0 -->
    <g style="fill: #440154" transform="translate(102.051948 160.775256) scale(0.08 -0.08)">
     <defs>
      <path id="DejaVuSans-48" d="M 628 4666 
L 1259 4666 
L 1259 2753 
L 3553 2753 
L 3553 4666 
L 4184 4666 
L 4184 0 
L 3553 0 
L 3553 2222 
L 1259 2222 
L 1259 0 
L 628 0 
L 628 4666 
z
" transform="scale(0.015625)"/>
     </defs>
     <use xlink:href="#DejaVuSans-48"/>
     <use xlink:href="#DejaVuSans-6f" transform="translate(75.195312 0)"/>
     <use xlink:href="#DejaVuSans-70" transform="translate(136.376953 0)"/>
     <use xlink:href="#DejaVuSans-20" transform="translate(199.853516 0)"/>
     <use xlink:href="#DejaVuSans-30" transform="translate(231.640625 0)"/>
    </g>
   </g>
   <g id="patch_14">
    <path d="M 171.316883 166.109456 
Q 171.316883 160.77472 171.316883 156.558019 
" style="fill: none; stroke: #414487; stroke-linecap: round"/>
    <path d="M 169.316883 160.558019 
L 171.316883 156.558019 
L 173.316883 160.558019 
" style="fill: none; stroke: #414487; stroke-linecap: round"/>
   </g>
   <g id="text_14">
    <!-- Hop 1 -->
    <g style="fill: #414487" transform="translate(194.405195 197.459076) scale(0.08 -0.08)">
     <use xlink:href="#DejaVuSans-48"/>
     <use xlink:href="#DejaVuSans-6f" transform="translate(75.195312 0)"/>
     <use xlink:href="#DejaVuSans-70" transform="translate(136.376953 0)"/>
     <use xlink:href="#DejaVuSans-20" transform="translate(199.853516 0)"/>
     <use xlink:href="#DejaVuSans-31" transform="translate(231.640625 0)"/>
    </g>
   </g>
   <g id="patch_15">
    <path d="M 263.67013 202.793276 
Q 263.67013 197.45854 263.67013 193.241839 
" style="fill: none; stroke: #2a788e; stroke-linecap: round"/>
    <path d="M 261.67013 197.241839 
L 263.67013 193.241839 
L 265.67013 197.241839 
" style="fill: none; stroke: #2a788e; stroke-linecap: round"/>
   </g>
   <g id="text_15">
    <!-- Hop 2 -->
    <g style="fill: #2a788e" transform="translate(286.758442 234.142896) scale(0.08 -0.08)">
     <use xlink:href="#DejaVuSans-48"/>
     <use xlink:href="#DejaVuSans-6f" transform="translate(75.195312 0)"/>
     <use xlink:href="#DejaVuSans-70" transform="translate(136.376953 0)"/>
     <use xlink:href="#DejaVuSans-20" transform="translate(199.853516 0)"/>
     <use xlink:href="#DejaVuSans-32" transform="translate(231.640625 0)"/>
    </g>
   </g>
   <g id="patch_16">
    <path d="M 356.023377 239.477096 
Q 356.023377 234.142361 356.023377 229.925659 
" style="fill: none; stroke: #22a884; stroke-linecap: round"/>
    <path d="M 354.023377 233.925659 
L 356.023377 229.925659 
L 358.023377 233.925659 
" style="fill: none; stroke: #22a884; stroke-linecap: round"/>
   </g>
   <g id="text_16">
    <!-- Hop 3 -->
    <g style="fill: #22a884" transform="translate(379.111688 270.826716) scale(0.08 -0.08)">
     <use xlink:href="#DejaVuSans-48"/>
     <use xlink:href="#DejaVuSans-6f" transform="translate(75.195312 0)"/>
     <use xlink:href="#DejaVuSans-70" transform="translate(136.376953 0)"/>
     <use xlink:href="#DejaVuSans-20" transform="translate(199.853516 0)"/>
     <use xlink:href="#DejaVuSans-33" transform="translate(231.640625 0)"/>
    </g>
   </g>
   <g id="patch_17">
    <path d="M 448.376623 276.160916 
Q 448.376623 270.826181 448.376623 266.609479 
" style="fill: none; stroke: #7ad151; stroke-linecap: round"/>
    <path d="M 446.376623 270.609479 
L 448.376623 266.609479 
L 450.376623 270.609479 
" style="fill: none; stroke: #7ad151; stroke-linecap: round"/>
   </g>
   <g id="text_17">
    <!-- Hop 4 -->
    <g style="fill: #7ad151" transform="translate(471.464935 307.510537) scale(0.08 -0.08)">
     <use xlink:href="#DejaVuSans-48"/>
     <use xlink:href="#DejaVuSans-6f" transform="translate(75.195312 0)"/>
     <use xlink:href="#DejaVuSans-70" transform="translate(136.376953 0)"/>
     <use xlink:href="#DejaVuSans-20" transform="translate(199.853516 0)"/>
     <use xlink:href="#DejaVuSans-34" transform="translate(231.640625 0)"/>
    </g>
   </g>
   <g id="patch_18">
    <path d="M 540.72987 312.844737 
Q 540.72987 307.510001 540.72987 303.293299 
" style="fill: none; stroke: #fde725; stroke-linecap: round"/>
    <path d="M 538.72987 307.293299 
L 540.72987 303.293299 
L 542.72987 307.293299 
" style="fill: none; stroke: #fde725; stroke-linecap: round"/>
   </g>
   <g id="text_18">
    <!-- Step 1: Framing (Window Size = 256, Hop Size = 128) -->
    <g transform="translate(239.518437 20.88) scale(0.12 -0.12)">
     <defs>
      <path id="DejaVuSans-3a" d="M 750 794 
L 1409 794 
L 1409 0 
L 750 0 
L 750 794 
z
M 750 3309 
L 1409 3309 
L 1409 2516 
L 750 2516 
L 750 3309 
z
" transform="scale(0.015625)"/>
      <path id="DejaVuSans-46" d="M 628 4666 
L 3309 4666 
L 3309 4134 
L 1259 4134 
L 1259 2759 
L 3109 2759 
L 3109 2228 
L 1259 2228 
L 1259 0 
L 628 0 
L 628 4666 
z
" transform="scale(0.015625)"/>
      <path id="DejaVuSans-6e" d="M 3513 2113 
L 3513 0 
L 2938 0 
L 2938 2094 
Q 2938 2591 2744 2837 
Q 2550 3084 2163 3084 
Q 1697 3084 1428 2787 
Q 1159 2491 1159 1978 
L 1159 0 
L 581 0 
L 581 3500 
L 1159 3500 
L 1159 2956 
Q 1366 3272 1645 3428 
Q 1925 3584 2291 3584 
Q 2894 3584 3203 3211 
Q 3513 2838 3513 2113 
z
" transform="scale(0.015625)"/>
      <path id="DejaVuSans-57" d="M 213 4666 
L 850 4666 
L 1831 722 
L 2809 4666 
L 3519 4666 
L 4500 722 
L 5478 4666 
L 6119 4666 
L 4947 0 
L 4153 0 
L 3169 4050 
L 2175 0 
L 1381 0 
L 213 4666 
z
" transform="scale(0.015625)"/>
      <path id="DejaVuSans-77" d="M 269 3500 
L 844 3500 
L 1563 769 
L 2278 3500 
L 2956 3500 
L 3675 769 
L 4391 3500 
L 4966 3500 
L 4050 0 
L 3372 0 
L 2619 2869 
L 1863 0 
L 1184 0 
L 269 3500 
z
" transform="scale(0.015625)"/>
      <path id="DejaVuSans-7a" d="M 353 3500 
L 3084 3500 
L 3084 2975 
L 922 459 
L 3084 459 
L 3084 0 
L 275 0 
L 275 525 
L 2438 3041 
L 353 3041 
L 353 3500 
z
" transform="scale(0.015625)"/>
      <path id="DejaVuSans-3d" d="M 678 2906 
L 4684 2906 
L 4684 2381 
L 678 2381 
L 678 2906 
z
M 678 1631 
L 4684 1631 
L 4684 1100 
L 678 1100 
L 678 1631 
z
" transform="scale(0.015625)"/>
      <path id="DejaVuSans-35" d="M 691 4666 
L 3169 4666 
L 3169 4134 
L 1269 4134 
L 1269 2991 
Q 1406 3038 1543 3061 
Q 1681 3084 1819 3084 
Q 2600 3084 3056 2656 
Q 3513 2228 3513 1497 
Q 3513 744 3044 326 
Q 2575 -91 1722 -91 
Q 1428 -91 1123 -41 
Q 819 9 494 109 
L 494 744 
Q 775 591 1075 516 
Q 1375 441 1709 441 
Q 2250 441 2565 725 
Q 2881 1009 2881 1497 
Q 2881 1984 2565 2268 
Q 2250 2553 1709 2553 
Q 1456 2553 1204 2497 
Q 953 2441 691 2322 
L 691 4666 
z
" transform="scale(0.015625)"/>
      <path id="DejaVuSans-2c" d="M 750 794 
L 1409 794 
L 1409 256 
L 897 -744 
L 494 -744 
L 750 256 
L 750 794 
z
" transform="scale(0.015625)"/>
     </defs>
     <use xlink:href="#DejaVuSans-53"/>
     <use xlink:href="#DejaVuSans-74" transform="translate(63.476562 0)"/>
     <use xlink:href="#DejaVuSans-65" transform="translate(102.685547 0)"/>
     <use xlink:href="#DejaVuSans-70" transform="translate(164.208984 0)"/>
     <use xlink:href="#DejaVuSans-20" transform="translate(227.685547 0)"/>
     <use xlink:href="#DejaVuSans-31" transform="translate(259.472656 0)"/>
     <use xlink:href="#DejaVuSans-3a" transform="translate(323.095703 0)"/>
     <use xlink:href="#DejaVuSans-20" transform="translate(356.787109 0)"/>
     <use xlink:href="#DejaVuSans-46" transform="translate(388.574219 0)"/>
     <use xlink:href="#DejaVuSans-72" transform="translate(438.84375 0)"/>
     <use xlink:href="#DejaVuSans-61" transform="translate(479.957031 0)"/>
     <use xlink:href="#DejaVuSans-6d" transform="translate(541.236328 0)"/>
     <use xlink:href="#DejaVuSans-69" transform="translate(638.648438 0)"/>
     <use xlink:href="#DejaVuSans-6e" transform="translate(666.431641 0)"/>
     <use xlink:href="#DejaVuSans-67" transform="translate(729.810547 0)"/>
     <use xlink:href="#DejaVuSans-20" transform="translate(793.287109 0)"/>
     <use xlink:href="#DejaVuSans-28" transform="translate(825.074219 0)"/>
     <use xlink:href="#DejaVuSans-57" transform="translate(864.087891 0)"/>
     <use xlink:href="#DejaVuSans-69" transform="translate(960.714844 0)"/>
     <use xlink:href="#DejaVuSans-6e" transform="translate(988.498047 0)"/>
     <use xlink:href="#DejaVuSans-64" transform="translate(1051.876953 0)"/>
     <use xlink:href="#DejaVuSans-6f" transform="translate(1115.353516 0)"/>
     <use xlink:href="#DejaVuSans-77" transform="translate(1176.535156 0)"/>
     <use xlink:href="#DejaVuSans-20" transform="translate(1258.322266 0)"/>
     <use xlink:href="#DejaVuSans-53" transform="translate(1290.109375 0)"/>
     <use xlink:href="#DejaVuSans-69" transform="translate(1353.585938 0)"/>
     <use xlink:href="#DejaVuSans-7a" transform="translate(1381.369141 0)"/>
     <use xlink:href="#DejaVuSans-65" transform="translate(1433.859375 0)"/>
     <use xlink:href="#DejaVuSans-20" transform="translate(1495.382812 0)"/>
     <use xlink:href="#DejaVuSans-3d" transform="translate(1527.169922 0)"/>
     <use xlink:href="#DejaVuSans-20" transform="translate(1610.958984 0)"/>
     <use xlink:href="#DejaVuSans-32" transform="translate(1642.746094 0)"/>
     <use xlink:href="#DejaVuSans-35" transform="translate(1706.369141 0)"/>
     <use xlink:href="#DejaVuSans-36" transform="translate(1769.992188 0)"/>
     <use xlink:href="#DejaVuSans-2c" transform="translate(1833.615234 0)"/>
     <use xlink:href="#DejaVuSans-20" transform="translate(1865.402344 0)"/>
     <use xlink:href="#DejaVuSans-48" transform="translate(1897.189453 0)"/>
     <use xlink:href="#DejaVuSans-6f" transform="translate(1972.384766 0)"/>
     <use xlink:href="#DejaVuSans-70" transform="translate(2033.566406 0)"/>
     <use xlink:href="#DejaVuSans-20" transform="translate(2097.042969 0)"/>
     <use xlink:href="#DejaVuSans-53" transform="translate(2128.830078 0)"/>
     <use xlink:href="#DejaVuSans-69" transform="translate(2192.306641 0)"/>
     <use xlink:href="#DejaVuSans-7a" transform="translate(2220.089844 0)"/>
     <use xlink:href="#DejaVuSans-65" transform="translate(2272.580078 0)"/>
     <use xlink:href="#DejaVuSans-20" transform="translate(2334.103516 0)"/>
     <use xlink:href="#DejaVuSans-3d" transform="translate(2365.890625 0)"/>
     <use xlink:href="#DejaVuSans-20" transform="translate(2449.679688 0)"/>
     <use xlink:href="#DejaVuSans-31" transform="translate(2481.466797 0)"/>
     <use xlink:href="#DejaVuSans-32" transform="translate(2545.089844 0)"/>
     <use xlink:href="#DejaVuSans-38" transform="translate(2608.712891 0)"/>
     <use xlink:href="#DejaVuSans-29" transform="translate(2672.335938 0)"/>
    </g>
   </g>
   <g id="legend_1">
    <g id="patch_19">
     <path d="M 752.399875 137.626875 
L 857.428 137.626875 
Q 859.428 137.626875 859.428 135.626875 
L 859.428 33.88 
Q 859.428 31.88 857.428 31.88 
L 752.399875 31.88 
Q 750.399875 31.88 750.399875 33.88 
L 750.399875 135.626875 
Q 750.399875 137.626875 752.399875 137.626875 
z
" style="fill: #ffffff; opacity: 0.8; stroke: #cccccc; stroke-linejoin: miter"/>
    </g>
    <g id="line2d_28">
     <path d="M 754.399875 39.978437 
L 764.399875 39.978437 
L 774.399875 39.978437 
" style="fill: none; stroke: #000000; stroke-opacity: 0.2; stroke-width: 1.5; stroke-linecap: square"/>
    </g>
    <g id="text_19">
     <!-- Original Signal -->
     <g transform="translate(782.399875 43.478437) scale(0.1 -0.1)">
      <defs>
       <path id="DejaVuSans-4f" d="M 2522 4238 
Q 1834 4238 1429 3725 
Q 1025 3213 1025 2328 
Q 1025 1447 1429 934 
Q 1834 422 2522 422 
Q 3209 422 3611 934 
Q 4013 1447 4013 2328 
Q 4013 3213 3611 3725 
Q 3209 4238 2522 4238 
z
M 2522 4750 
Q 3503 4750 4090 4092 
Q 4678 3434 4678 2328 
Q 4678 1225 4090 567 
Q 3503 -91 2522 -91 
Q 1538 -91 948 565 
Q 359 1222 359 2328 
Q 359 3434 948 4092 
Q 1538 4750 2522 4750 
z
" transform="scale(0.015625)"/>
      </defs>
      <use xlink:href="#DejaVuSans-4f"/>
      <use xlink:href="#DejaVuSans-72" transform="translate(78.710938 0)"/>
      <use xlink:href="#DejaVuSans-69" transform="translate(119.824219 0)"/>
      <use xlink:href="#DejaVuSans-67" transform="translate(147.607422 0)"/>
      <use xlink:href="#DejaVuSans-69" transform="translate(211.083984 0)"/>
      <use xlink:href="#DejaVuSans-6e" transform="translate(238.867188 0)"/>
      <use xlink:href="#DejaVuSans-61" transform="translate(302.246094 0)"/>
      <use xlink:href="#DejaVuSans-6c" transform="translate(363.525391 0)"/>
      <use xlink:href="#DejaVuSans-20" transform="translate(391.308594 0)"/>
      <use xlink:href="#DejaVuSans-53" transform="translate(423.095703 0)"/>
      <use xlink:href="#DejaVuSans-69" transform="translate(486.572266 0)"/>
      <use xlink:href="#DejaVuSans-67" transform="translate(514.355469 0)"/>
      <use xlink:href="#DejaVuSans-6e" transform="translate(577.832031 0)"/>
      <use xlink:href="#DejaVuSans-61" transform="translate(641.210938 0)"/>
      <use xlink:href="#DejaVuSans-6c" transform="translate(702.490234 0)"/>
     </g>
    </g>
    <g id="line2d_29">
     <path d="M 754.399875 54.656563 
L 764.399875 54.656563 
L 774.399875 54.656563 
" style="fill: none; stroke: #440154; stroke-width: 2; stroke-linecap: square"/>
    </g>
    <g id="text_20">
     <!-- Frame 0 -->
     <g transform="translate(782.399875 58.156563) scale(0.1 -0.1)">
      <use xlink:href="#DejaVuSans-46"/>
      <use xlink:href="#DejaVuSans-72" transform="translate(50.269531 0)"/>
      <use xlink:href="#DejaVuSans-61" transform="translate(91.382812 0)"/>
      <use xlink:href="#DejaVuSans-6d" transform="translate(152.662109 0)"/>
      <use xlink:href="#DejaVuSans-65" transform="translate(250.074219 0)"/>
      <use xlink:href="#DejaVuSans-20" transform="translate(311.597656 0)"/>
      <use xlink:href="#DejaVuSans-30" transform="translate(343.384766 0)"/>
     </g>
    </g>
    <g id="line2d_30">
     <path d="M 754.399875 69.334687 
L 764.399875 69.334687 
L 774.399875 69.334687 
" style="fill: none; stroke: #414487; stroke-width: 2; stroke-linecap: square"/>
    </g>
    <g id="text_21">
     <!-- Frame 1 -->
     <g transform="translate(782.399875 72.834687) scale(0.1 -0.1)">
      <use xlink:href="#DejaVuSans-46"/>
      <use xlink:href="#DejaVuSans-72" transform="translate(50.269531 0)"/>
      <use xlink:href="#DejaVuSans-61" transform="translate(91.382812 0)"/>
      <use xlink:href="#DejaVuSans-6d" transform="translate(152.662109 0)"/>
      <use xlink:href="#DejaVuSans-65" transform="translate(250.074219 0)"/>
      <use xlink:href="#DejaVuSans-20" transform="translate(311.597656 0)"/>
      <use xlink:href="#DejaVuSans-31" transform="translate(343.384766 0)"/>
     </g>
    </g>
    <g id="line2d_31">
     <path d="M 754.399875 84.012812 
L 764.399875 84.012812 
L 774.399875 84.012812 
" style="fill: none; stroke: #2a788e; stroke-width: 2; stroke-linecap: square"/>
    </g>
    <g id="text_22">
     <!-- Frame 2 -->
     <g transform="translate(782.399875 87.512812) scale(0.1 -0.1)">
      <use xlink:href="#DejaVuSans-46"/>
      <use xlink:href="#DejaVuSans-72" transform="translate(50.269531 0)"/>
      <use xlink:href="#DejaVuSans-61" transform="translate(91.382812 0)"/>
      <use xlink:href="#DejaVuSans-6d" transform="translate(152.662109 0)"/>
      <use xlink:href="#DejaVuSans-65" transform="translate(250.074219 0)"/>
      <use xlink:href="#DejaVuSans-20" transform="translate(311.597656 0)"/>
      <use xlink:href="#DejaVuSans-32" transform="translate(343.384766 0)"/>
     </g>
    </g>
    <g id="line2d_32">
     <path d="M 754.399875 98.690938 
L 764.399875 98.690938 
L 774.399875 98.690938 
" style="fill: none; stroke: #22a884; stroke-width: 2; stroke-linecap: square"/>
    </g>
    <g id="text_23">
     <!-- Frame 3 -->
     <g transform="translate(782.399875 102.190938) scale(0.1 -0.1)">
      <use xlink:href="#DejaVuSans-46"/>
      <use xlink:href="#DejaVuSans-72" transform="translate(50.269531 0)"/>
      <use xlink:href="#DejaVuSans-61" transform="translate(91.382812 0)"/>
      <use xlink:href="#DejaVuSans-6d" transform="translate(152.662109 0)"/>
      <use xlink:href="#DejaVuSans-65" transform="translate(250.074219 0)"/>
      <use xlink:href="#DejaVuSans-20" transform="translate(311.597656 0)"/>
      <use xlink:href="#DejaVuSans-33" transform="translate(343.384766 0)"/>
     </g>
    </g>
    <g id="line2d_33">
     <path d="M 754.399875 113.369062 
L 764.399875 113.369062 
L 774.399875 113.369062 
" style="fill: none; stroke: #7ad151; stroke-width: 2; stroke-linecap: square"/>
    </g>
    <g id="text_24">
     <!-- Frame 4 -->
     <g transform="translate(782.399875 116.869062) scale(0.1 -0.1)">
      <use xlink:href="#DejaVuSans-46"/>
      <use xlink:href="#DejaVuSans-72" transform="translate(50.269531 0)"/>
      <use xlink:href="#DejaVuSans-61" transform="translate(91.382812 0)"/>
      <use xlink:href="#DejaVuSans-6d" transform="translate(152.662109 0)"/>
      <use xlink:href="#DejaVuSans-65" transform="translate(250.074219 0)"/>
      <use xlink:href="#DejaVuSans-20" transform="translate(311.597656 0)"/>
      <use xlink:href="#DejaVuSans-34" transform="translate(343.384766 0)"/>
     </g>
    </g>
    <g id="line2d_34">
     <path d="M 754.399875 128.047187 
L 764.399875 128.047187 
L 774.399875 128.047187 
" style="fill: none; stroke: #fde725; stroke-width: 2; stroke-linecap: square"/>
    </g>
    <g id="text_25">
     <!-- Frame 5 -->
     <g transform="translate(782.399875 131.547187) scale(0.1 -0.1)">
      <use xlink:href="#DejaVuSans-46"/>
      <use xlink:href="#DejaVuSans-72" transform="translate(50.269531 0)"/>
      <use xlink:href="#DejaVuSans-61" transform="translate(91.382812 0)"/>
      <use xlink:href="#DejaVuSans-6d" transform="translate(152.662109 0)"/>
      <use xlink:href="#DejaVuSans-65" transform="translate(250.074219 0)"/>
      <use xlink:href="#DejaVuSans-20" transform="translate(311.597656 0)"/>
      <use xlink:href="#DejaVuSans-35" transform="translate(343.384766 0)"/>
     </g>
    </g>
   </g>
  </g>
 </g>
 <defs>
  <clipPath id="p8e02df293d">
   <rect x="46.64" y="26.88" width="711.12" height="363.16"/>
  </clipPath>
 </defs>
</svg>
